<svg xmlns="http://www.w3.org/2000/svg" viewBox="0 0 200 260" width="200" height="260"><g><g transform="rotate(30 76 130)"><line x1="76" y1="130" x2="76" y2="180" stroke="#8A6FB5" stroke-width="15" stroke-linecap="round"/><circle cx="76" cy="180" r="9" fill="#C98E5A"/></g><g transform="rotate(-30 124 130)"><line x1="124" y1="130" x2="124" y2="180" stroke="#8A6FB5" stroke-width="15" stroke-linecap="round"/><circle cx="124" cy="180" r="9" fill="#C98E5A"/></g><line x1="87" y1="182" x2="60" y2="206" stroke="#6B7686" stroke-width="17" stroke-linecap="round"/><line x1="60" y1="206" x2="66" y2="232" stroke="#6B7686" stroke-width="15" stroke-linecap="round"/><ellipse cx="66" cy="238" rx="12" ry="8" fill="#3A3F47"/><line x1="113" y1="182" x2="140" y2="206" stroke="#6B7686" stroke-width="17" stroke-linecap="round"/><line x1="140" y1="206" x2="134" y2="232" stroke="#6B7686" stroke-width="15" stroke-linecap="round"/><ellipse cx="134" cy="238" rx="12" ry="8" fill="#3A3F47"/><rect x="70" y="116" width="60" height="72" rx="20" fill="#8A6FB5"/><circle cx="52" cy="74" r="8" fill="#C98E5A"/><circle cx="148" cy="74" r="8" fill="#C98E5A"/><circle cx="100" cy="70" r="48" fill="#C98E5A"/><path d="M 52 66 A 48 48 0 0 1 148 66 L 154 134 q -12 8 -20 0 L 134 74 A 34 34 0 0 0 66 74 L 66 134 q -8 8 -20 0 Z" fill="#2A2320"/><circle cx="82" cy="68" r="4.5" fill="#2A2320"/><circle cx="118" cy="68" r="4.5" fill="#2A2320"/><path d="M 76 54 q 6 -5 12 0" stroke="#2A2320" stroke-width="3" fill="none" stroke-linecap="round"/><path d="M 112 54 q 6 -5 12 0" stroke="#2A2320" stroke-width="3" fill="none" stroke-linecap="round"/><path d="M 84 90 q 16 12 32 0" stroke="#2A2320" stroke-width="3.5" fill="none" stroke-linecap="round"/></g></svg>