<svg viewBox="19.5 22.6 517.2 144.7" role="img" aria-label="Cohasset School" xmlns="http://www.w3.org/2000/svg">
  <title>Cohasset School</title>
  <defs>
    <!-- Strong shadow cast far to the LEFT (light from the upper-right) -->
    <filter id="sh" x="-40%" y="-30%" width="180%" height="160%">
      <feDropShadow dx="-3" dy="3" stdDeviation="1.8" flood-color="#0B1630" flood-opacity="0.45"/>
    </filter>
  </defs>

  <g id="sunburst" transform="rotate(-40 90 90)" filter="url(#sh)">

    <!-- ============== BASES (dark altitude layer, offset MUCH to the LEFT) ============== -->
    <g fill="#081847">
      <circle cx="116.5" cy="63"  r="12"/>
      <circle cx="56.5"  cy="63"  r="12"/>
      <circle cx="116.5" cy="123" r="12"/>
      <circle cx="56.5"  cy="123" r="12"/>

      <circle cx="76.5"  cy="62.5" r="6.5"/>
      <circle cx="96.5"  cy="62.5" r="6.5"/>
      <circle cx="76.5"  cy="122.5" r="6.5"/>
      <circle cx="96.5"  cy="122.5" r="6.5"/>
      <circle cx="56.5"  cy="82.5"  r="6.5"/>
      <circle cx="56.5"  cy="102.5" r="6.5"/>
      <circle cx="116.5" cy="82.5"  r="6.5"/>
      <circle cx="116.5" cy="102.5" r="6.5"/>

      <circle cx="76.5"  cy="46.5"  r="6.5"/>
      <circle cx="96.5"  cy="46.5"  r="6.5"/>
      <circle cx="76.5"  cy="30.5"  r="6.5"/>
      <circle cx="96.5"  cy="30.5"  r="6.5"/>
      <circle cx="76.5"  cy="138.5" r="6.5"/>
      <circle cx="96.5"  cy="138.5" r="6.5"/>
      <circle cx="76.5"  cy="154.5" r="6.5"/>
      <circle cx="96.5"  cy="154.5" r="6.5"/>
      <circle cx="40.5"  cy="82.5"  r="6.5"/>
      <circle cx="40.5"  cy="102.5" r="6.5"/>
      <circle cx="24.5"  cy="82.5"  r="6.5"/>
      <circle cx="24.5"  cy="102.5" r="6.5"/>
      <circle cx="132.5" cy="82.5"  r="6.5"/>
      <circle cx="132.5" cy="102.5" r="6.5"/>
      <circle cx="148.5" cy="82.5"  r="6.5"/>
      <circle cx="148.5" cy="102.5" r="6.5"/>

      <circle cx="86.5" cy="93" r="18"/>
    </g>

    <!-- ============== FACES (flat mid-blue top) ============== -->
    <g fill="#2563EB">
      <circle cx="120" cy="60"  r="12"/>
      <circle cx="60"  cy="60"  r="12"/>
      <circle cx="120" cy="120" r="12"/>
      <circle cx="60"  cy="120" r="12"/>

      <circle cx="80"  cy="60"  r="6.5"/>
      <circle cx="100" cy="60"  r="6.5"/>
      <circle cx="80"  cy="120" r="6.5"/>
      <circle cx="100" cy="120" r="6.5"/>
      <circle cx="60"  cy="80"  r="6.5"/>
      <circle cx="60"  cy="100" r="6.5"/>
      <circle cx="120" cy="80"  r="6.5"/>
      <circle cx="120" cy="100" r="6.5"/>

      <circle cx="80"  cy="44"  r="6.5"/>
      <circle cx="100" cy="44"  r="6.5"/>
      <circle cx="80"  cy="28"  r="6.5"/>
      <circle cx="100" cy="28"  r="6.5"/>

      <circle cx="80"  cy="136" r="6.5"/>
      <circle cx="100" cy="136" r="6.5"/>
      <circle cx="80"  cy="152" r="6.5"/>
      <circle cx="100" cy="152" r="6.5"/>

      <circle cx="44"  cy="80"  r="6.5"/>
      <circle cx="44"  cy="100" r="6.5"/>
      <circle cx="28"  cy="80"  r="6.5"/>
      <circle cx="28"  cy="100" r="6.5"/>

      <circle cx="136" cy="80"  r="6.5"/>
      <circle cx="136" cy="100" r="6.5"/>
      <circle cx="152" cy="80"  r="6.5"/>
      <circle cx="152" cy="100" r="6.5"/>

      <circle cx="90" cy="90" r="18"/>
    </g>
  </g>

  <text x="168.6" y="85.8" font-family="Arial Black, Arial, Helvetica, sans-serif" font-weight="900" font-size="39" letter-spacing="-1.014" textLength="231.2" fill="#64748B">COHASSET</text>
  <text x="169.0" y="126.3" font-family="Arial Black, Arial, Helvetica, sans-serif" font-weight="900" font-size="39" textLength="182.0" fill="#2563EB">SCHOOL</text>
  <text x="362.7" y="126.3" font-family="Arial, Helvetica, sans-serif" font-weight="700" font-size="39" letter-spacing="1.56" textLength="168.1" fill="#64748B">PORTAL</text>
</svg>
